<svg width="16" height="16" viewBox="0 0 16 16" fill="none" xmlns="http://www.w3.org/2000/svg">
<g opacity="0.5" clip-path="url(#clip0_1_1510)">
<path d="M7.33333 10H8.66667V11.3334H7.33333V10ZM7.33333 4.66671H8.66667V8.66671H7.33333V4.66671ZM7.99333 1.33337C4.31333 1.33337 1.33333 4.32004 1.33333 8.00004C1.33333 11.68 4.31333 14.6667 7.99333 14.6667C11.68 14.6667 14.6667 11.68 14.6667 8.00004C14.6667 4.32004 11.68 1.33337 7.99333 1.33337ZM8 13.3334C5.05333 13.3334 2.66667 10.9467 2.66667 8.00004C2.66667 5.05337 5.05333 2.66671 8 2.66671C10.9467 2.66671 13.3333 5.05337 13.3333 8.00004C13.3333 10.9467 10.9467 13.3334 8 13.3334Z" fill="black"/>
</g>
<defs>
<clipPath id="clip0_1_1510">
<rect width="16" height="16" fill="white"/>
</clipPath>
</defs>
</svg>
