<svg width="28" height="28" viewBox="0 0 28 28" fill="none" xmlns="http://www.w3.org/2000/svg">
<path d="M18.6667 14C18.6667 15.2833 19.7167 16.3333 21 16.3333C22.2833 16.3333 23.3333 15.2833 23.3333 14C23.3333 12.7166 22.2833 11.6666 21 11.6666C19.7167 11.6666 18.6667 12.7166 18.6667 14ZM16.3333 14C16.3333 12.7166 15.2833 11.6666 14 11.6666C12.7167 11.6666 11.6667 12.7166 11.6667 14C11.6667 15.2833 12.7167 16.3333 14 16.3333C15.2833 16.3333 16.3333 15.2833 16.3333 14ZM9.33333 14C9.33333 12.7166 8.28333 11.6666 7 11.6666C5.71666 11.6666 4.66666 12.7166 4.66666 14C4.66666 15.2833 5.71666 16.3333 7 16.3333C8.28333 16.3333 9.33333 15.2833 9.33333 14Z" fill="black"/>
</svg>
